<svg xmlns="http://www.w3.org/2000/svg" viewBox="0 0 127 127" width="40" height="40">
  <path fill="#E01E5A" d="M27.2,80c0,7.5-6.1,13.6-13.6,13.6S0,87.5,0,80c0-7.5,6.1-13.6,13.6-13.6h13.6V80z"/>
  <path fill="#E01E5A" d="M33.9,80c0-7.5,6.1-13.6,13.6-13.6c7.5,0,13.6,6.1,13.6,13.6v33.9c0,7.5-6.1,13.6-13.6,13.6c-7.5,0-13.6-6.1-13.6-13.6V80z"/>
  <path fill="#36C5F0" d="M47,27.2c-7.5,0-13.6-6.1-13.6-13.6S39.5,0,47,0c7.5,0,13.6,6.1,13.6,13.6v13.6H47z"/>
  <path fill="#36C5F0" d="M47,33.9c7.5,0,13.6,6.1,13.6,13.6c0,7.5-6.1,13.6-13.6,13.6H13.1c-7.5,0-13.6-6.1-13.6-13.6c0-7.5,6.1-13.6,13.6-13.6H47z"/>
  <path fill="#2EB67D" d="M99.8,47c0-7.5,6.1-13.6,13.6-13.6s13.6,6.1,13.6,13.6c0,7.5-6.1,13.6-13.6,13.6H99.8V47z"/>
  <path fill="#2EB67D" d="M93.1,47c0,7.5-6.1,13.6-13.6,13.6c-7.5,0-13.6-6.1-13.6-13.6V13.1c0-7.5,6.1-13.6,13.6-13.6c7.5,0,13.6,6.1,13.6,13.6V47z"/>
  <path fill="#ECB22E" d="M79.9,99.8c7.5,0,13.6,6.1,13.6,13.6s-6.1,13.6-13.6,13.6c-7.5,0-13.6-6.1-13.6-13.6V99.8H79.9z"/>
  <path fill="#ECB22E" d="M86.6,93.1c0-7.5,6.1-13.6,13.6-13.6c7.5,0,13.6,6.1,13.6,13.6v33.9c0,7.5-6.1,13.6-13.6,13.6c-7.5,0-13.6-6.1-13.6-13.6V93.1z"/>
</svg>